<svg width="494" height="100" viewBox="0 0 494 100" fill="none" xmlns="http://www.w3.org/2000/svg">
<g clip-path="url(#clip0_220_29)">
<path d="M455.951 3.00816C435.081 15.5962 437.731 26.1962 422.825 18.5772C407.919 10.9582 382.08 4.33315 392.349 41.7651C402.618 79.1971 435.749 131.865 476.159 74.8912C516.569 17.9172 476.821 -9.57984 455.951 3.00816Z" fill="#DEF4F9"/>
<path d="M465 72H464V43C464 42.7348 463.895 42.4804 463.707 42.2929C463.52 42.1054 463.265 42 463 42H457C456.735 42 456.48 42.1054 456.293 42.2929C456.105 42.4804 456 42.7348 456 43V72H452V55C452 54.7348 451.895 54.4804 451.707 54.2929C451.52 54.1054 451.265 54 451 54H445C444.735 54 444.48 54.1054 444.293 54.2929C444.105 54.4804 444 54.7348 444 55V72H440V51C440 50.7348 439.895 50.4804 439.707 50.2929C439.52 50.1054 439.265 50 439 50H433C432.735 50 432.48 50.1054 432.293 50.2929C432.105 50.4804 432 50.7348 432 51V72H428V61C428 60.7348 427.895 60.4804 427.707 60.2929C427.52 60.1054 427.265 60 427 60H421C420.735 60 420.48 60.1054 420.293 60.2929C420.105 60.4804 420 60.7348 420 61V72H419C418.735 72 418.48 72.1054 418.293 72.2929C418.105 72.4804 418 72.7348 418 73C418 73.2652 418.105 73.5196 418.293 73.7071C418.48 73.8946 418.735 74 419 74H465C465.265 74 465.52 73.8946 465.707 73.7071C465.895 73.5196 466 73.2652 466 73C466 72.7348 465.895 72.4804 465.707 72.2929C465.52 72.1054 465.265 72 465 72Z" fill="#22C6F9"/>
<path d="M460 26.0001C459.295 25.996 458.601 26.1797 457.99 26.5323C457.379 26.8849 456.873 27.3936 456.523 28.0064C456.174 28.6191 455.994 29.3138 456.001 30.0191C456.009 30.7244 456.204 31.415 456.567 32.0201L450.021 38.5661C449.201 38.0706 448.229 37.8919 447.286 38.0636C446.344 38.2352 445.497 38.7454 444.905 39.4981L439.991 38.0981C439.991 38.0661 440.001 38.0361 440.001 37.9981C440.001 36.9372 439.579 35.9198 438.829 35.1696C438.079 34.4195 437.062 33.9981 436.001 33.9981C434.94 33.9981 433.923 34.4195 433.172 35.1696C432.422 35.9198 432.001 36.9372 432.001 37.9981C432.002 38.5597 432.123 39.1147 432.355 39.6261L426.105 44.6121C425.477 44.2134 424.749 44.0006 424.005 43.9981C423.214 43.9981 422.44 44.2327 421.783 44.6722C421.125 45.1117 420.612 45.7364 420.309 46.4673C420.007 47.1982 419.927 48.0025 420.082 48.7784C420.236 49.5543 420.617 50.2671 421.176 50.8265C421.736 51.3859 422.449 51.7669 423.225 51.9212C424 52.0755 424.805 51.9963 425.536 51.6936C426.267 51.3908 426.891 50.8781 427.331 50.2203C427.77 49.5625 428.005 48.7892 428.005 47.9981C428 47.3216 427.822 46.6577 427.487 46.0701L433.613 41.1841C434.059 41.5262 434.574 41.769 435.122 41.8961C435.67 42.0233 436.239 42.0318 436.791 41.9212C437.342 41.8106 437.864 41.5835 438.321 41.2549C438.777 40.9263 439.159 40.5039 439.439 40.0161L444.067 41.3401C444.025 41.5577 444.002 41.7785 443.999 42.0001C443.994 42.6174 444.132 43.2275 444.403 43.7825C444.673 44.3376 445.068 44.8225 445.557 45.1994C446.046 45.5762 446.616 45.8348 447.221 45.9548C447.827 46.0748 448.452 46.053 449.048 45.8912C449.643 45.7293 450.194 45.4317 450.655 45.0217C451.117 44.6117 451.477 44.1004 451.708 43.5279C451.939 42.9554 452.035 42.3372 451.987 41.7217C451.939 41.1062 451.749 40.5101 451.433 39.9801L457.981 33.4321C458.59 33.8003 459.288 33.9966 460 34.0001C461.061 34.0001 462.078 33.5786 462.828 32.8285C463.578 32.0783 464 31.0609 464 30.0001C464 28.9392 463.578 27.9218 462.828 27.1716C462.078 26.4215 461.061 26.0001 460 26.0001V26.0001Z" fill="#22C6F9"/>
</g>
<path d="M65.9509 3.00718C45.0809 15.5952 47.7309 26.1952 32.8249 18.5762C17.9189 10.9572 -7.92012 4.33217 2.34888 41.7642C12.6179 79.1962 45.7489 131.864 86.1589 74.8902C126.569 17.9162 86.8209 -9.58082 65.9509 3.00718Z" fill="#DEF4F9"/>
<path d="M65.5377 35.931L68.5507 32.919C68.8144 32.6552 68.9626 32.2975 68.9626 31.9245C68.9626 31.5515 68.8144 31.1938 68.5507 30.93C68.2869 30.6662 67.9292 30.5181 67.5562 30.5181C67.1831 30.5181 66.8254 30.6662 66.5616 30.93L63.5486 33.942C63.418 34.0726 63.3145 34.2276 63.2438 34.3983C63.1731 34.5689 63.1367 34.7518 63.1367 34.9365C63.1367 35.1212 63.1731 35.3041 63.2438 35.4747C63.3145 35.6454 63.418 35.8004 63.5486 35.931C63.6792 36.0616 63.8343 36.1652 64.0049 36.2359C64.1756 36.3066 64.3585 36.3429 64.5432 36.3429C64.7278 36.3429 64.9107 36.3066 65.0814 36.2359C65.252 36.1652 65.4071 36.0616 65.5377 35.931V35.931Z" fill="#22C6F9"/>
<path d="M72.0748 42.5679H69.0618C68.6887 42.5679 68.331 42.7161 68.0672 42.9798C67.8035 43.2436 67.6553 43.6013 67.6553 43.9744C67.6553 44.3474 67.8035 44.7051 68.0672 44.9689C68.331 45.2327 68.6887 45.3809 69.0618 45.3809H72.0748C72.4477 45.3809 72.8053 45.2327 73.069 44.9691C73.3326 44.7054 73.4808 44.3478 73.4808 43.9749C73.4808 43.602 73.3326 43.2444 73.069 42.9807C72.8053 42.717 72.4477 42.5689 72.0748 42.5689V42.5679Z" fill="#22C6F9"/>
<path d="M55.5056 31.824C55.8785 31.824 56.2361 31.6759 56.4998 31.4122C56.7635 31.1485 56.9116 30.7909 56.9116 30.418V27.405C56.9116 27.0321 56.7635 26.6745 56.4998 26.4108C56.2361 26.1472 55.8785 25.999 55.5056 25.999C55.1327 25.999 54.7751 26.1472 54.5114 26.4108C54.2478 26.6745 54.0996 27.0321 54.0996 27.405V30.418C54.0996 30.6027 54.136 30.7855 54.2066 30.9561C54.2773 31.1267 54.3809 31.2817 54.5114 31.4122C54.7751 31.6759 55.1327 31.824 55.5056 31.824Z" fill="#22C6F9"/>
<path d="M30.4117 61.0542C30.1481 61.3181 30 61.6758 30 62.0487C30 62.4217 30.1481 62.7794 30.4117 63.0432L36.4367 69.0682C36.5673 69.1989 36.7223 69.3025 36.8929 69.3733C37.0636 69.444 37.2465 69.4803 37.4312 69.4803C37.6159 69.4803 37.7988 69.444 37.9695 69.3733C38.1401 69.3025 38.2951 69.1989 38.4257 69.0682L40.7817 66.7122L32.7677 58.6982L30.4117 61.0542Z" fill="#22C6F9"/>
<path d="M54.7578 62.1899L44.8838 66.8369L51.6338 73.5869C51.7644 73.7176 51.9194 73.8213 52.09 73.892C52.2607 73.9627 52.4436 73.9991 52.6283 73.9991C52.813 73.9991 52.9959 73.9627 53.1665 73.892C53.3372 73.8213 53.4922 73.7176 53.6228 73.5869L58.8948 68.3149C59.0254 68.1844 59.1291 68.0293 59.1998 67.8587C59.2705 67.6881 59.3069 67.5051 59.3069 67.3204C59.3069 67.1357 59.2705 66.9528 59.1998 66.7822C59.1291 66.6116 59.0254 66.4565 58.8948 66.326L54.7578 62.1899Z" fill="#22C6F9"/>
<path d="M48.9688 30.9299C48.809 30.7703 48.6131 30.6517 48.3977 30.5839C48.1823 30.5161 47.9537 30.5012 47.7313 30.5404C47.5089 30.5797 47.2993 30.6719 47.1201 30.8093C46.9409 30.9467 46.7974 31.1253 46.7018 31.3299L34.7568 56.7089L42.7708 64.7229L68.1548 52.7769C68.3594 52.6813 68.538 52.5378 68.6754 52.3586C68.8128 52.1794 68.905 51.9697 68.9443 51.7474C68.9835 51.525 68.9686 51.2964 68.9008 51.081C68.833 50.8656 68.7143 50.6697 68.5548 50.5099L48.9688 30.9299Z" fill="#22C6F9"/>
<g clip-path="url(#clip1_220_29)">
<path d="M362 50C362 49.0111 362.293 48.0444 362.843 47.2222C363.392 46.3999 364.173 45.759 365.087 45.3806C366 45.0022 367.006 44.9031 367.975 45.0961C368.945 45.289 369.836 45.7652 370.536 46.4645C371.235 47.1637 371.711 48.0546 371.904 49.0246C372.097 49.9945 371.998 50.9998 371.619 51.9134C371.241 52.8271 370.6 53.6079 369.778 54.1573C368.956 54.7068 367.989 55 367 55C365.674 55 364.402 54.4732 363.464 53.5355C362.527 52.5979 362 51.3261 362 50V50ZM342 50C342 49.0111 342.293 48.0444 342.843 47.2222C343.392 46.3999 344.173 45.759 345.087 45.3806C346 45.0022 347.006 44.9031 347.975 45.0961C348.945 45.289 349.836 45.7652 350.536 46.4645C351.235 47.1637 351.711 48.0546 351.904 49.0246C352.097 49.9945 351.998 50.9998 351.619 51.9134C351.241 52.8271 350.6 53.6079 349.778 54.1573C348.956 54.7068 347.989 55 347 55C345.674 55 344.402 54.4732 343.464 53.5355C342.527 52.5979 342 51.3261 342 50V50ZM322 50C322 49.0111 322.293 48.0444 322.843 47.2222C323.392 46.3999 324.173 45.759 325.087 45.3806C326 45.0022 327.006 44.9031 327.975 45.0961C328.945 45.289 329.836 45.7652 330.536 46.4645C331.235 47.1637 331.711 48.0546 331.904 49.0246C332.097 49.9945 331.998 50.9998 331.619 51.9134C331.241 52.8271 330.6 53.6079 329.778 54.1573C328.956 54.7068 327.989 55 327 55C325.674 55 324.402 54.4732 323.464 53.5355C322.527 52.5979 322 51.3261 322 50V50ZM302 50C302 49.0111 302.293 48.0444 302.843 47.2222C303.392 46.3999 304.173 45.759 305.087 45.3806C306 45.0022 307.006 44.9031 307.975 45.0961C308.945 45.289 309.836 45.7652 310.536 46.4645C311.235 47.1637 311.711 48.0546 311.904 49.0246C312.097 49.9945 311.998 50.9998 311.619 51.9134C311.241 52.8271 310.6 53.6079 309.778 54.1573C308.956 54.7068 307.989 55 307 55C305.674 55 304.402 54.4732 303.464 53.5355C302.527 52.5979 302 51.3261 302 50V50ZM282 50C282 49.0111 282.293 48.0444 282.843 47.2222C283.392 46.3999 284.173 45.759 285.087 45.3806C286 45.0022 287.006 44.9031 287.975 45.0961C288.945 45.289 289.836 45.7652 290.536 46.4645C291.235 47.1637 291.711 48.0546 291.904 49.0246C292.097 49.9945 291.998 50.9998 291.619 51.9134C291.241 52.8271 290.6 53.6079 289.778 54.1573C288.956 54.7068 287.989 55 287 55C285.674 55 284.402 54.4732 283.464 53.5355C282.527 52.5979 282 51.3261 282 50V50ZM262 50C262 49.0111 262.293 48.0444 262.843 47.2222C263.392 46.3999 264.173 45.759 265.087 45.3806C266 45.0022 267.006 44.9031 267.975 45.0961C268.945 45.289 269.836 45.7652 270.536 46.4645C271.235 47.1637 271.711 48.0546 271.904 49.0246C272.097 49.9945 271.998 50.9998 271.619 51.9134C271.241 52.8271 270.6 53.6079 269.778 54.1573C268.956 54.7068 267.989 55 267 55C265.674 55 264.402 54.4732 263.464 53.5355C262.527 52.5979 262 51.3261 262 50V50ZM242 50C242 49.0111 242.293 48.0444 242.843 47.2222C243.392 46.3999 244.173 45.759 245.087 45.3806C246 45.0022 247.006 44.9031 247.975 45.0961C248.945 45.289 249.836 45.7652 250.536 46.4645C251.235 47.1637 251.711 48.0546 251.904 49.0246C252.097 49.9945 251.998 50.9998 251.619 51.9134C251.241 52.8271 250.6 53.6079 249.778 54.1573C248.956 54.7068 247.989 55 247 55C245.674 55 244.402 54.4732 243.464 53.5355C242.527 52.5979 242 51.3261 242 50ZM222 50C222 49.0111 222.293 48.0444 222.843 47.2222C223.392 46.3999 224.173 45.759 225.087 45.3806C226 45.0022 227.006 44.9031 227.975 45.0961C228.945 45.289 229.836 45.7652 230.536 46.4645C231.235 47.1637 231.711 48.0546 231.904 49.0246C232.097 49.9945 231.998 50.9998 231.619 51.9134C231.241 52.8271 230.6 53.6079 229.778 54.1573C228.956 54.7068 227.989 55 227 55C225.674 55 224.402 54.4732 223.464 53.5355C222.527 52.5979 222 51.3261 222 50ZM202 50C202 49.0111 202.293 48.0444 202.843 47.2222C203.392 46.3999 204.173 45.759 205.087 45.3806C206 45.0022 207.006 44.9031 207.975 45.0961C208.945 45.289 209.836 45.7652 210.536 46.4645C211.235 47.1637 211.711 48.0546 211.904 49.0246C212.097 49.9945 211.998 50.9998 211.619 51.9134C211.241 52.8271 210.6 53.6079 209.778 54.1573C208.956 54.7068 207.989 55 207 55C205.674 55 204.402 54.4732 203.464 53.5355C202.527 52.5979 202 51.3261 202 50ZM182 50C182 49.0111 182.293 48.0444 182.843 47.2222C183.392 46.3999 184.173 45.759 185.087 45.3806C186 45.0022 187.006 44.9031 187.975 45.0961C188.945 45.289 189.836 45.7652 190.536 46.4645C191.235 47.1637 191.711 48.0546 191.904 49.0246C192.097 49.9945 191.998 50.9998 191.619 51.9134C191.241 52.8271 190.6 53.6079 189.778 54.1573C188.956 54.7068 187.989 55 187 55C185.674 55 184.402 54.4732 183.464 53.5355C182.527 52.5979 182 51.3261 182 50ZM162 50C162 49.0111 162.293 48.0444 162.843 47.2222C163.392 46.3999 164.173 45.759 165.087 45.3806C166 45.0022 167.006 44.9031 167.975 45.0961C168.945 45.289 169.836 45.7652 170.536 46.4645C171.235 47.1637 171.711 48.0546 171.904 49.0246C172.097 49.9945 171.998 50.9998 171.619 51.9134C171.241 52.8271 170.6 53.6079 169.778 54.1573C168.956 54.7068 167.989 55 167 55C165.674 55 164.402 54.4732 163.464 53.5355C162.527 52.5979 162 51.3261 162 50ZM142 50C142 49.0111 142.293 48.0444 142.843 47.2222C143.392 46.3999 144.173 45.759 145.087 45.3806C146 45.0022 147.006 44.9031 147.975 45.0961C148.945 45.289 149.836 45.7652 150.536 46.4645C151.235 47.1637 151.711 48.0546 151.904 49.0246C152.097 49.9945 151.998 50.9998 151.619 51.9134C151.241 52.8271 150.6 53.6079 149.778 54.1573C148.956 54.7068 147.989 55 147 55C145.674 55 144.402 54.4732 143.464 53.5355C142.527 52.5979 142 51.3261 142 50ZM122 50C122 49.0111 122.293 48.0444 122.843 47.2222C123.392 46.3999 124.173 45.759 125.087 45.3806C126 45.0022 127.006 44.9031 127.975 45.0961C128.945 45.289 129.836 45.7652 130.536 46.4645C131.235 47.1637 131.711 48.0546 131.904 49.0246C132.097 49.9945 131.998 50.9998 131.619 51.9134C131.241 52.8271 130.6 53.6079 129.778 54.1573C128.956 54.7068 127.989 55 127 55C125.674 55 124.402 54.4732 123.464 53.5355C122.527 52.5979 122 51.3261 122 50V50Z" fill="#DEF4F9"/>
</g>
<defs>
<clipPath id="clip0_220_29">
<rect width="103.584" height="100" fill="white" transform="translate(390)"/>
</clipPath>
<clipPath id="clip1_220_29">
<rect width="250" height="10" fill="white" transform="translate(122 45)"/>
</clipPath>
</defs>
</svg>
